<mxfile host="app.diagrams.net" modified="2020-07-21T06:50:01.023Z" agent="5.0 (Windows NT 10.0; Win64; x64) AppleWebKit/537.36 (KHTML, like Gecko) Chrome/83.0.4103.116 Safari/537.36" etag="I9HUuEu2ZtkXp2iQaDqK" version="13.4.9" type="github">
  <diagram id="C5RBs43oDa-KdzZeNtuy" name="Page-1">
    <mxGraphModel dx="1221" dy="682" grid="1" gridSize="10" guides="1" tooltips="1" connect="1" arrows="1" fold="1" page="1" pageScale="1" pageWidth="827" pageHeight="1169" math="0" shadow="0">
      <root>
        <mxCell id="WIyWlLk6GJQsqaUBKTNV-0" />
        <mxCell id="WIyWlLk6GJQsqaUBKTNV-1" parent="WIyWlLk6GJQsqaUBKTNV-0" />
        <mxCell id="WIyWlLk6GJQsqaUBKTNV-2" value="" style="rounded=0;html=1;jettySize=auto;orthogonalLoop=1;fontSize=11;endArrow=block;endFill=0;endSize=8;strokeWidth=1;shadow=0;labelBackgroundColor=none;edgeStyle=orthogonalEdgeStyle;" parent="WIyWlLk6GJQsqaUBKTNV-1" source="WIyWlLk6GJQsqaUBKTNV-3" edge="1">
          <mxGeometry relative="1" as="geometry">
            <mxPoint x="220" y="169.9999999999999" as="targetPoint" />
          </mxGeometry>
        </mxCell>
        <mxCell id="WIyWlLk6GJQsqaUBKTNV-3" value="Login by the Invigilator" style="rounded=1;whiteSpace=wrap;html=1;fontSize=12;glass=0;strokeWidth=1;shadow=0;" parent="WIyWlLk6GJQsqaUBKTNV-1" vertex="1">
          <mxGeometry x="160" y="90" width="120" height="40" as="geometry" />
        </mxCell>
        <mxCell id="WIyWlLk6GJQsqaUBKTNV-11" value="Repair Lamp" style="rounded=1;whiteSpace=wrap;html=1;fontSize=12;glass=0;strokeWidth=1;shadow=0;" parent="WIyWlLk6GJQsqaUBKTNV-1" vertex="1">
          <mxGeometry x="160" y="800" width="120" height="40" as="geometry" />
        </mxCell>
        <mxCell id="0GkiZXZOzo5zhN54wi7A-2" value="" style="endArrow=classic;html=1;" edge="1" parent="WIyWlLk6GJQsqaUBKTNV-1">
          <mxGeometry width="50" height="50" relative="1" as="geometry">
            <mxPoint x="219.5" y="370" as="sourcePoint" />
            <mxPoint x="219.5" y="430" as="targetPoint" />
          </mxGeometry>
        </mxCell>
        <mxCell id="0GkiZXZOzo5zhN54wi7A-5" value="&lt;span style=&quot;font-size: 18px&quot;&gt;&lt;b&gt;1)&amp;nbsp;&amp;nbsp;&lt;/b&gt;&lt;/span&gt;&lt;font size=&quot;3&quot;&gt;&amp;nbsp;&lt;b&gt;&lt;u&gt;CLASS AND QUESTION PAPER UPLOADING&lt;/u&gt;&lt;/b&gt;&lt;/font&gt;" style="text;html=1;align=center;verticalAlign=middle;resizable=0;points=[];autosize=1;" vertex="1" parent="WIyWlLk6GJQsqaUBKTNV-1">
          <mxGeometry x="200" y="20" width="390" height="20" as="geometry" />
        </mxCell>
        <mxCell id="0GkiZXZOzo5zhN54wi7A-11" value="" style="edgeStyle=orthogonalEdgeStyle;rounded=0;orthogonalLoop=1;jettySize=auto;html=1;" edge="1" parent="WIyWlLk6GJQsqaUBKTNV-1" source="0GkiZXZOzo5zhN54wi7A-10">
          <mxGeometry relative="1" as="geometry">
            <mxPoint x="220" y="310" as="targetPoint" />
          </mxGeometry>
        </mxCell>
        <mxCell id="0GkiZXZOzo5zhN54wi7A-10" value="Input the class&lt;br&gt;&amp;nbsp;Class" style="shape=parallelogram;perimeter=parallelogramPerimeter;whiteSpace=wrap;html=1;" vertex="1" parent="WIyWlLk6GJQsqaUBKTNV-1">
          <mxGeometry x="135" y="170" width="170" height="70" as="geometry" />
        </mxCell>
        <mxCell id="0GkiZXZOzo5zhN54wi7A-12" value="Input the subject" style="shape=parallelogram;perimeter=parallelogramPerimeter;whiteSpace=wrap;html=1;" vertex="1" parent="WIyWlLk6GJQsqaUBKTNV-1">
          <mxGeometry x="140" y="310" width="160" height="70" as="geometry" />
        </mxCell>
        <mxCell id="0GkiZXZOzo5zhN54wi7A-15" value="" style="edgeStyle=orthogonalEdgeStyle;rounded=0;orthogonalLoop=1;jettySize=auto;html=1;" edge="1" parent="WIyWlLk6GJQsqaUBKTNV-1" source="0GkiZXZOzo5zhN54wi7A-13" target="0GkiZXZOzo5zhN54wi7A-14">
          <mxGeometry relative="1" as="geometry" />
        </mxCell>
        <mxCell id="0GkiZXZOzo5zhN54wi7A-13" value="Upload the &lt;br&gt;Question paper.&amp;nbsp;" style="shape=parallelogram;perimeter=parallelogramPerimeter;whiteSpace=wrap;html=1;" vertex="1" parent="WIyWlLk6GJQsqaUBKTNV-1">
          <mxGeometry x="125" y="430" width="190" height="80" as="geometry" />
        </mxCell>
        <mxCell id="0GkiZXZOzo5zhN54wi7A-17" value="" style="edgeStyle=orthogonalEdgeStyle;rounded=0;orthogonalLoop=1;jettySize=auto;html=1;" edge="1" parent="WIyWlLk6GJQsqaUBKTNV-1" source="0GkiZXZOzo5zhN54wi7A-14" target="0GkiZXZOzo5zhN54wi7A-16">
          <mxGeometry relative="1" as="geometry" />
        </mxCell>
        <mxCell id="0GkiZXZOzo5zhN54wi7A-14" value="Set the time &lt;br&gt;and date for the exam" style="shape=parallelogram;perimeter=parallelogramPerimeter;whiteSpace=wrap;html=1;" vertex="1" parent="WIyWlLk6GJQsqaUBKTNV-1">
          <mxGeometry x="140" y="544" width="160" height="80" as="geometry" />
        </mxCell>
        <mxCell id="0GkiZXZOzo5zhN54wi7A-16" value="Set the duration of the&amp;nbsp;&lt;br&gt;Exam" style="shape=parallelogram;perimeter=parallelogramPerimeter;whiteSpace=wrap;html=1;" vertex="1" parent="WIyWlLk6GJQsqaUBKTNV-1">
          <mxGeometry x="135" y="670" width="170" height="90" as="geometry" />
        </mxCell>
      </root>
    </mxGraphModel>
  </diagram>
</mxfile>
